<?xml version="1.0" standalone="no"?>
<!DOCTYPE svg PUBLIC "-//W3C//DTD SVG 20010904//EN"
 "http://www.w3.org/TR/2001/REC-SVG-20010904/DTD/svg10.dtd">
<svg version="1.0" xmlns="http://www.w3.org/2000/svg"
 width="1280.000000pt" height="1075.000000pt" viewBox="0 0 1280.000000 1075.000000"
 preserveAspectRatio="xMidYMid meet">
<metadata>
Created by potrace 1.15, written by Peter Selinger 2001-2017
</metadata>
<g transform="translate(0.000000,1075.000000) scale(0.100000,-0.100000)"
fill="#000000" stroke="none">
<path d="M6720 9780 c-388 -533 -708 -969 -711 -970 -4 0 -78 44 -165 99 -296
183 -414 243 -599 304 -455 149 -848 66 -1174 -247 -102 -99 -149 -162 -566
-756 -506 -721 -1240 -1763 -2400 -3405 -540 -765 -998 -1415 -1017 -1445
-148 -232 -103 -497 123 -721 234 -233 609 -362 956 -329 58 5 108 9 109 7 2
-1 -46 -69 -106 -151 -99 -135 -110 -155 -124 -220 -9 -39 -52 -237 -96 -441
-101 -462 -170 -782 -259 -1185 -38 -173 -68 -316 -68 -317 1 0 409 230 907
513 l905 515 199 272 c109 149 204 281 212 292 14 19 15 19 72 -12 67 -36 182
-79 267 -98 135 -32 239 -36 629 -25 209 6 1310 33 2446 60 2000 48 2468 59
3390 80 239 6 624 15 855 20 231 5 769 17 1195 25 426 8 848 18 938 21 l162 6
0 1699 0 1699 -68 0 c-291 0 -833 96 -1097 195 -186 69 -154 50 -1745 1080
-1392 902 -2423 1566 -2425 1563 -36 -55 -70 -98 -77 -98 -5 0 -6 6 -2 13 5 6
322 443 706 970 384 527 699 962 701 967 1 6 -1362 993 -1368 990 0 0 -317
-437 -705 -970z m-746 -4340 c146 -193 508 -705 544 -770 61 -110 89 -242 72
-344 -29 -178 -167 -330 -405 -446 -141 -69 -199 -89 -400 -140 -361 -92 -697
-142 -1238 -185 -213 -17 -280 -19 -275 -7 2 4 347 480 767 1057 l765 1048 34
-39 c18 -21 80 -100 136 -174z"/>
</g>
</svg>
